<?xml version="1.0" encoding="utf-8"?>
<!-- Generator: Adobe Illustrator 16.0.0, SVG Export Plug-In . SVG Version: 6.00 Build 0)  -->
<!DOCTYPE svg PUBLIC "-//W3C//DTD SVG 1.1//EN" "http://www.w3.org/Graphics/SVG/1.1/DTD/svg11.dtd">
<svg version="1.1" id="Layer_1" xmlns="http://www.w3.org/2000/svg" xmlns:xlink="http://www.w3.org/1999/xlink" x="0px" y="0px"
	 width="33.563px" height="19.578px" viewBox="0 0 33.563 19.578" enable-background="new 0 0 33.563 19.578" xml:space="preserve">
<g id="CZECH_REPUBLIC_3_" display="none">
	<g display="inline">
		<g>
			<defs>
				<rect id="SVGID_1_" width="33.563" height="19.578"/>
			</defs>
			<clipPath id="SVGID_2_">
				<use xlink:href="#SVGID_1_"  overflow="visible"/>
			</clipPath>
			<rect clip-path="url(#SVGID_2_)" fill="#C4202B" width="33.563" height="19.578"/>
			<rect clip-path="url(#SVGID_2_)" fill="#FFFFFF" width="33.563" height="9.787"/>
			<polygon clip-path="url(#SVGID_2_)" fill="#29467D" points="0,0 0,19.578 14.684,9.787 			"/>
		</g>
	</g>
</g>
<g id="NEW_ZEALAND_2_" display="none">
	<g display="inline">
		<g>
			<defs>
				<rect id="SVGID_3_" width="33.563" height="19.578"/>
			</defs>
			<clipPath id="SVGID_4_">
				<use xlink:href="#SVGID_3_"  overflow="visible"/>
			</clipPath>
			<polygon clip-path="url(#SVGID_4_)" fill="#2C3077" points="16.788,0 16.788,0.623 16.788,0.836 16.788,0.936 13.063,2.797 
				16.788,2.797 16.788,3.357 16.788,4.197 16.788,5.036 16.788,5.595 13.063,5.595 16.788,7.458 16.788,7.771 16.788,8.395 
				16.788,8.448 15.642,8.448 15.213,8.448 15.016,8.448 9.789,5.834 9.789,8.448 9.229,8.448 8.39,8.448 7.552,8.448 6.992,8.448 
				6.992,5.834 1.766,8.448 1.14,8.448 0,8.448 0,19.578 33.563,19.578 33.563,0 			"/>
			<polygon clip-path="url(#SVGID_4_)" fill="#2C3077" points="0,5.595 0,7.454 3.718,5.595 			"/>
			<polygon clip-path="url(#SVGID_4_)" fill="#2C3077" points="9.789,0 9.789,2.561 14.905,0 			"/>
			<polygon clip-path="url(#SVGID_4_)" fill="#2C3077" points="6.992,0 1.876,0 6.992,2.561 			"/>
			<polygon clip-path="url(#SVGID_4_)" fill="#2C3077" points="0,2.797 3.718,2.797 0,0.94 			"/>
			<polygon clip-path="url(#SVGID_4_)" fill="#FFFFFF" points="16.781,0 11.188,2.797 9.935,2.797 15.529,0 14.905,0 9.789,2.561 
				9.789,0 9.229,0 9.229,2.839 9.229,3.151 9.229,3.357 10.067,3.357 11.319,3.357 11.747,3.357 11.943,3.357 16.788,3.357 
				16.788,2.797 13.063,2.797 16.788,0.936 16.788,0.836 16.788,0.623 16.788,0 			"/>
			<polygon clip-path="url(#SVGID_4_)" fill="#FFFFFF" points="6.992,0 6.992,2.561 1.876,0 0,0 5.594,2.797 4.343,2.797 0,0.628 
				0,0.94 3.718,2.797 0,2.797 0,3.357 4.835,3.357 5.462,3.357 6.711,3.357 7.552,3.357 7.552,3.151 7.552,2.938 7.552,2.839 
				7.552,0 			"/>
			<polygon clip-path="url(#SVGID_4_)" fill="#FFFFFF" points="11.319,5.036 10.067,5.036 9.229,5.036 9.229,5.241 9.229,5.455 
				9.229,5.554 9.229,8.448 9.789,8.448 9.789,5.834 15.016,8.448 15.213,8.448 15.642,8.448 16.788,8.448 16.788,8.395 
				11.188,5.595 12.438,5.595 16.788,7.771 16.788,7.458 13.063,5.595 16.788,5.595 16.788,5.036 11.943,5.036 			"/>
			<polygon clip-path="url(#SVGID_4_)" fill="#FFFFFF" points="6.711,5.036 5.462,5.036 5.033,5.036 4.835,5.036 0,5.036 0,5.595 
				3.718,5.595 0,7.454 0,8.391 5.594,5.595 6.844,5.595 1.14,8.448 1.766,8.448 6.992,5.834 6.992,8.448 7.552,8.448 7.552,5.554 
				7.552,5.241 7.552,5.036 			"/>
			<polygon clip-path="url(#SVGID_4_)" fill="#BD1F38" points="5.594,5.595 0,8.391 0,8.448 1.14,8.448 6.844,5.595 			"/>
			<polygon clip-path="url(#SVGID_4_)" fill="#BD1F38" points="0,0.628 4.343,2.797 5.594,2.797 0,0 			"/>
			<polygon clip-path="url(#SVGID_4_)" fill="#BD1F38" points="16.781,0 15.529,0 9.935,2.797 11.188,2.797 			"/>
			<polygon clip-path="url(#SVGID_4_)" fill="#BD1F38" points="11.188,5.595 16.788,8.395 16.788,7.771 12.438,5.595 			"/>
			<polygon clip-path="url(#SVGID_4_)" fill="#BD1F38" points="7.552,0 7.552,2.839 7.552,2.938 7.552,3.151 7.552,3.357 
				6.711,3.357 5.462,3.357 4.835,3.357 0,3.357 0,5.036 4.835,5.036 5.033,5.036 5.462,5.036 6.711,5.036 7.552,5.036 7.552,5.241 
				7.552,5.554 7.552,8.448 8.39,8.448 9.229,8.448 9.229,5.554 9.229,5.455 9.229,5.241 9.229,5.036 10.067,5.036 11.319,5.036 
				11.943,5.036 16.788,5.036 16.788,4.197 16.788,3.357 11.943,3.357 11.747,3.357 11.319,3.357 10.067,3.357 9.229,3.357 
				9.229,3.151 9.229,2.839 9.229,0 			"/>
			<polygon clip-path="url(#SVGID_4_)" fill="#FFFFFF" points="23.298,5.714 24.208,5.714 24.492,4.847 24.773,5.714 25.683,5.714 
				24.947,6.251 25.228,7.118 24.492,6.581 23.751,7.118 24.035,6.251 			"/>
			<polygon clip-path="url(#SVGID_4_)" fill="#BD1F38" points="23.702,5.847 24.304,5.847 24.492,5.273 24.677,5.847 25.278,5.847 
				24.793,6.202 24.978,6.775 24.492,6.421 24.003,6.775 24.189,6.202 			"/>
			<polygon clip-path="url(#SVGID_4_)" fill="#FFFFFF" points="19.647,9.386 20.559,9.386 20.843,8.517 21.124,9.386 22.036,9.386 
				21.3,9.92 21.579,10.788 20.843,10.252 20.106,10.788 20.387,9.92 			"/>
			<polygon clip-path="url(#SVGID_4_)" fill="#BD1F38" points="20.053,9.517 20.655,9.517 20.843,8.942 21.028,9.517 21.634,9.517 
				21.145,9.871 21.331,10.445 20.843,10.089 20.354,10.445 20.542,9.871 			"/>
			<polygon clip-path="url(#SVGID_4_)" fill="#FFFFFF" points="26.555,8.476 27.367,8.476 27.619,7.703 27.869,8.476 28.679,8.476 
				28.023,8.949 28.275,9.723 27.619,9.247 26.961,9.723 27.213,8.949 			"/>
			<polygon clip-path="url(#SVGID_4_)" fill="#BD1F38" points="26.915,8.591 27.454,8.591 27.619,8.082 27.784,8.591 28.322,8.591 
				27.887,8.908 28.052,9.418 27.619,9.103 27.184,9.418 27.351,8.908 			"/>
			<polygon clip-path="url(#SVGID_4_)" fill="#FFFFFF" points="23.165,15.145 24.177,15.145 24.492,14.181 24.804,15.145 
				25.817,15.145 24.998,15.741 25.309,16.705 24.492,16.109 23.673,16.705 23.985,15.741 			"/>
			<polygon clip-path="url(#SVGID_4_)" fill="#BD1F38" points="23.614,15.292 24.285,15.292 24.492,14.654 24.698,15.292 
				25.367,15.292 24.828,15.686 25.034,16.325 24.492,15.929 23.95,16.325 24.158,15.686 			"/>
		</g>
	</g>
</g>
<g id="ITALY_3_">
	<g>
		<g>
			<defs>
				<rect id="SVGID_5_" width="33.563" height="19.578"/>
			</defs>
			<clipPath id="SVGID_6_">
				<use xlink:href="#SVGID_5_"  overflow="visible"/>
			</clipPath>
			<rect clip-path="url(#SVGID_6_)" fill="#079247" width="11.188" height="19.578"/>
			<rect x="11.188" clip-path="url(#SVGID_6_)" fill="#F2F2F1" width="11.188" height="19.578"/>
			<rect x="22.375" clip-path="url(#SVGID_6_)" fill="#CE2B37" width="11.188" height="19.578"/>
		</g>
	</g>
</g>
</svg>
