<?xml version="1.0" encoding="utf-8"?>
<!-- Generator: Adobe Illustrator 16.0.0, SVG Export Plug-In . SVG Version: 6.00 Build 0)  -->
<!DOCTYPE svg PUBLIC "-//W3C//DTD SVG 1.1//EN" "http://www.w3.org/Graphics/SVG/1.1/DTD/svg11.dtd">
<svg version="1.1" id="Layer_1" xmlns="http://www.w3.org/2000/svg" xmlns:xlink="http://www.w3.org/1999/xlink" x="0px" y="0px"
	 width="33.563px" height="19.578px" viewBox="0 0 33.563 19.578" enable-background="new 0 0 33.563 19.578" xml:space="preserve">
<g id="CZECH_REPUBLIC_3_" display="none">
	<g display="inline">
		<g>
			<defs>
				<rect id="SVGID_1_" width="33.563" height="19.578"/>
			</defs>
			<clipPath id="SVGID_2_">
				<use xlink:href="#SVGID_1_"  overflow="visible"/>
			</clipPath>
			<rect clip-path="url(#SVGID_2_)" fill="#C4202B" width="33.563" height="19.578"/>
			<rect clip-path="url(#SVGID_2_)" fill="#FFFFFF" width="33.563" height="9.787"/>
			<polygon clip-path="url(#SVGID_2_)" fill="#29467D" points="0,0 0,19.578 14.684,9.787 			"/>
		</g>
	</g>
</g>
<g id="NEW_ZEALAND_2_" display="none">
	<g display="inline">
		<g>
			<defs>
				<rect id="SVGID_3_" width="33.563" height="19.578"/>
			</defs>
			<clipPath id="SVGID_4_">
				<use xlink:href="#SVGID_3_"  overflow="visible"/>
			</clipPath>
			<polygon clip-path="url(#SVGID_4_)" fill="#2C3077" points="16.788,0 16.788,0.623 16.788,0.836 16.788,0.936 13.063,2.797 
				16.788,2.797 16.788,3.357 16.788,4.197 16.788,5.036 16.788,5.595 13.063,5.595 16.788,7.458 16.788,7.771 16.788,8.395 
				16.788,8.448 15.642,8.448 15.213,8.448 15.016,8.448 9.789,5.834 9.789,8.448 9.229,8.448 8.39,8.448 7.552,8.448 6.992,8.448 
				6.992,5.834 1.766,8.448 1.14,8.448 0,8.448 0,19.578 33.563,19.578 33.563,0 			"/>
			<polygon clip-path="url(#SVGID_4_)" fill="#2C3077" points="0,5.595 0,7.454 3.718,5.595 			"/>
			<polygon clip-path="url(#SVGID_4_)" fill="#2C3077" points="9.789,0 9.789,2.561 14.905,0 			"/>
			<polygon clip-path="url(#SVGID_4_)" fill="#2C3077" points="6.992,0 1.876,0 6.992,2.561 			"/>
			<polygon clip-path="url(#SVGID_4_)" fill="#2C3077" points="0,2.797 3.718,2.797 0,0.94 			"/>
			<polygon clip-path="url(#SVGID_4_)" fill="#FFFFFF" points="16.781,0 11.188,2.797 9.935,2.797 15.529,0 14.905,0 9.789,2.561 
				9.789,0 9.229,0 9.229,2.839 9.229,3.151 9.229,3.357 10.067,3.357 11.319,3.357 11.747,3.357 11.943,3.357 16.788,3.357 
				16.788,2.797 13.063,2.797 16.788,0.936 16.788,0.836 16.788,0.623 16.788,0 			"/>
			<polygon clip-path="url(#SVGID_4_)" fill="#FFFFFF" points="6.992,0 6.992,2.561 1.876,0 0,0 5.594,2.797 4.343,2.797 0,0.628 
				0,0.94 3.718,2.797 0,2.797 0,3.357 4.835,3.357 5.462,3.357 6.711,3.357 7.552,3.357 7.552,3.151 7.552,2.938 7.552,2.839 
				7.552,0 			"/>
			<polygon clip-path="url(#SVGID_4_)" fill="#FFFFFF" points="11.319,5.036 10.067,5.036 9.229,5.036 9.229,5.241 9.229,5.455 
				9.229,5.554 9.229,8.448 9.789,8.448 9.789,5.834 15.016,8.448 15.213,8.448 15.642,8.448 16.788,8.448 16.788,8.395 
				11.188,5.595 12.438,5.595 16.788,7.771 16.788,7.458 13.063,5.595 16.788,5.595 16.788,5.036 11.943,5.036 			"/>
			<polygon clip-path="url(#SVGID_4_)" fill="#FFFFFF" points="6.711,5.036 5.462,5.036 5.033,5.036 4.835,5.036 0,5.036 0,5.595 
				3.718,5.595 0,7.454 0,8.391 5.594,5.595 6.844,5.595 1.14,8.448 1.766,8.448 6.992,5.834 6.992,8.448 7.552,8.448 7.552,5.554 
				7.552,5.241 7.552,5.036 			"/>
			<polygon clip-path="url(#SVGID_4_)" fill="#BD1F38" points="5.594,5.595 0,8.391 0,8.448 1.14,8.448 6.844,5.595 			"/>
			<polygon clip-path="url(#SVGID_4_)" fill="#BD1F38" points="0,0.628 4.343,2.797 5.594,2.797 0,0 			"/>
			<polygon clip-path="url(#SVGID_4_)" fill="#BD1F38" points="16.781,0 15.529,0 9.935,2.797 11.188,2.797 			"/>
			<polygon clip-path="url(#SVGID_4_)" fill="#BD1F38" points="11.188,5.595 16.788,8.395 16.788,7.771 12.438,5.595 			"/>
			<polygon clip-path="url(#SVGID_4_)" fill="#BD1F38" points="7.552,0 7.552,2.839 7.552,2.938 7.552,3.151 7.552,3.357 
				6.711,3.357 5.462,3.357 4.835,3.357 0,3.357 0,5.036 4.835,5.036 5.033,5.036 5.462,5.036 6.711,5.036 7.552,5.036 7.552,5.241 
				7.552,5.554 7.552,8.448 8.39,8.448 9.229,8.448 9.229,5.554 9.229,5.455 9.229,5.241 9.229,5.036 10.067,5.036 11.319,5.036 
				11.943,5.036 16.788,5.036 16.788,4.197 16.788,3.357 11.943,3.357 11.747,3.357 11.319,3.357 10.067,3.357 9.229,3.357 
				9.229,3.151 9.229,2.839 9.229,0 			"/>
			<polygon clip-path="url(#SVGID_4_)" fill="#FFFFFF" points="23.298,5.714 24.208,5.714 24.492,4.847 24.773,5.714 25.683,5.714 
				24.947,6.251 25.228,7.118 24.492,6.581 23.751,7.118 24.035,6.251 			"/>
			<polygon clip-path="url(#SVGID_4_)" fill="#BD1F38" points="23.702,5.847 24.304,5.847 24.492,5.273 24.677,5.847 25.278,5.847 
				24.793,6.202 24.978,6.775 24.492,6.421 24.003,6.775 24.189,6.202 			"/>
			<polygon clip-path="url(#SVGID_4_)" fill="#FFFFFF" points="19.647,9.386 20.559,9.386 20.843,8.517 21.124,9.386 22.036,9.386 
				21.3,9.92 21.579,10.788 20.843,10.252 20.106,10.788 20.387,9.92 			"/>
			<polygon clip-path="url(#SVGID_4_)" fill="#BD1F38" points="20.053,9.517 20.655,9.517 20.843,8.942 21.028,9.517 21.634,9.517 
				21.145,9.871 21.331,10.445 20.843,10.089 20.354,10.445 20.542,9.871 			"/>
			<polygon clip-path="url(#SVGID_4_)" fill="#FFFFFF" points="26.555,8.476 27.367,8.476 27.619,7.703 27.869,8.476 28.679,8.476 
				28.023,8.949 28.275,9.723 27.619,9.247 26.961,9.723 27.213,8.949 			"/>
			<polygon clip-path="url(#SVGID_4_)" fill="#BD1F38" points="26.915,8.591 27.454,8.591 27.619,8.082 27.784,8.591 28.322,8.591 
				27.887,8.908 28.052,9.418 27.619,9.103 27.184,9.418 27.351,8.908 			"/>
			<polygon clip-path="url(#SVGID_4_)" fill="#FFFFFF" points="23.165,15.145 24.177,15.145 24.492,14.181 24.804,15.145 
				25.817,15.145 24.998,15.741 25.309,16.705 24.492,16.109 23.673,16.705 23.985,15.741 			"/>
			<polygon clip-path="url(#SVGID_4_)" fill="#BD1F38" points="23.614,15.292 24.285,15.292 24.492,14.654 24.698,15.292 
				25.367,15.292 24.828,15.686 25.034,16.325 24.492,15.929 23.95,16.325 24.158,15.686 			"/>
		</g>
	</g>
</g>
<g id="ITALY_3_" display="none">
	<g display="inline">
		<g>
			<defs>
				<rect id="SVGID_5_" width="33.563" height="19.578"/>
			</defs>
			<clipPath id="SVGID_6_">
				<use xlink:href="#SVGID_5_"  overflow="visible"/>
			</clipPath>
			<rect clip-path="url(#SVGID_6_)" fill="#079247" width="11.188" height="19.578"/>
			<rect x="11.188" clip-path="url(#SVGID_6_)" fill="#F2F2F1" width="11.188" height="19.578"/>
			<rect x="22.375" clip-path="url(#SVGID_6_)" fill="#CE2B37" width="11.188" height="19.578"/>
		</g>
	</g>
</g>
<g id="GERMANY_2_" display="none">
	<g display="inline">
		<g>
			<defs>
				<rect id="SVGID_7_" width="33.563" height="19.578"/>
			</defs>
			<clipPath id="SVGID_8_">
				<use xlink:href="#SVGID_7_"  overflow="visible"/>
			</clipPath>
			<rect clip-path="url(#SVGID_8_)" fill="#010101" width="33.563" height="6.523"/>
			<rect y="6.523" clip-path="url(#SVGID_8_)" fill="#E01F26" width="33.563" height="6.527"/>
			<rect y="13.05" clip-path="url(#SVGID_8_)" fill="#F6D929" width="33.563" height="6.528"/>
			<g display="none" clip-path="url(#SVGID_8_)">
				<defs>
					<rect id="SVGID_9_" width="33.563" height="19.578"/>
				</defs>
				<clipPath id="SVGID_10_" display="inline">
					<use xlink:href="#SVGID_9_"  overflow="visible"/>
				</clipPath>
				<path display="inline" clip-path="url(#SVGID_10_)" fill="#F5D729" d="M12.137,4.633v7.835c0,2.936,3.94,2.582,4.644,3.754
					c0.705-1.172,4.648-0.818,4.648-3.754V4.633H12.137z"/>
				<g display="inline" clip-path="url(#SVGID_10_)">
					<path fill="#010101" d="M16.781,16.281l-0.024-0.043c-0.25-0.414-0.912-0.633-1.679-0.889
						c-1.322-0.438-2.972-0.987-2.972-2.881V4.605h9.351v7.863c0,1.895-1.648,2.444-2.973,2.881
						c-0.767,0.256-1.429,0.475-1.678,0.889L16.781,16.281L16.781,16.281z M12.164,4.662v7.806c0,1.852,1.56,2.372,2.935,2.827
						c0.752,0.252,1.406,0.467,1.682,0.875c0.277-0.408,0.931-0.623,1.686-0.875c1.373-0.455,2.932-0.975,2.932-2.827V4.662H12.164
						L12.164,4.662z"/>
				</g>
				<path display="inline" clip-path="url(#SVGID_10_)" fill="#010101" d="M16.477,5.762c0.047,0.23-0.046,0.793-0.164,0.984
					c-0.117,0.185-0.423,0.537-0.445,0.889c-0.118,1.764,0.54,4.318,0.914,6.148c0.376-1.83,1.033-4.385,0.916-6.148
					c-0.115-1.758-0.352-2.229-0.352-2.229L16.477,5.762z"/>
				<path display="inline" clip-path="url(#SVGID_10_)" fill="#CA2027" d="M16.569,6.02c-0.437-0.033-0.804-0.121-1.103-0.258
					c0.125,0.154,0.409,0.279,0.846,0.373L16.569,6.02z"/>
				<g display="inline" clip-path="url(#SVGID_10_)">
					<path fill="#010101" d="M16.316,6.121c-0.447-0.066-0.733-0.193-0.86-0.352c0.313,0.115,0.682,0.203,1.115,0.232l-0.002,0.031
						C16.131,6,15.76,5.914,15.462,5.771C15.601,5.902,15.883,6.029,16.316,6.121L16.316,6.121z"/>
				</g>
				<path display="inline" clip-path="url(#SVGID_10_)" fill="#CA2027" d="M16.431,5.055c-0.704-0.352-1.128,0.049-0.658,0.682
					c0.048-0.117,0.492-0.283,0.704,0.283c-0.108,0.061-0.368,0.068-0.773,0.021c0.21,0.162,0.845,0.188,0.96,0.117
					c0.118-0.07-0.21-0.656-0.21-0.656L16.431,5.055z"/>
				<g display="inline" clip-path="url(#SVGID_10_)">
					<path fill="#010101" d="M16.396,6.209c-0.24,0-0.562-0.047-0.703-0.158c0.414,0.021,0.671,0.015,0.776-0.047
						c-0.133-0.314-0.334-0.367-0.442-0.369c0,0,0,0-0.002,0c-0.127,0-0.221,0.061-0.239,0.107
						c-0.238-0.283-0.284-0.551-0.154-0.707c0.145-0.172,0.452-0.17,0.803,0.008l-0.013,0.025c-0.333-0.167-0.634-0.174-0.766-0.014
						c-0.123,0.145-0.075,0.398,0.128,0.67c-0.002-0.057,0.118-0.119,0.245-0.119c0.115,0.002,0.33,0.055,0.462,0.406
						c-0.12,0.082-0.377,0.09-0.79,0.043c0.213,0.133,0.841,0.16,0.955,0.09c0.077-0.047-0.093-0.412-0.216-0.637
						c0.081,0.086,0.355,0.59,0.232,0.664C16.63,6.195,16.524,6.209,16.396,6.209L16.396,6.209z"/>
				</g>
				<path display="inline" clip-path="url(#SVGID_10_)" fill="#010101" d="M17.299,5.547c0.118-0.023,0.305-0.094,0.445-0.23
					c-0.259,0-0.729-0.145-0.917-0.236c-0.187-0.096-0.515-0.305-0.515,0.092c0,0.4,0.423,0.705,0.351,1.031L17.299,5.547z"/>
				<path display="inline" clip-path="url(#SVGID_10_)" fill="#F0F7FC" d="M16.713,5.289c0,0-0.236-0.117-0.282-0.162
					c-0.046-0.047-0.118,0.258,0.093,0.352C16.555,5.398,16.617,5.338,16.713,5.289L16.713,5.289z"/>
				<path display="inline" clip-path="url(#SVGID_10_)" fill="#010101" d="M16.548,5.148c-0.111,0.033-0.134,0.117-0.071,0.258
					c0.017-0.107,0.093-0.178,0.236-0.211L16.548,5.148z"/>
				<path display="inline" clip-path="url(#SVGID_10_)" fill="#010101" d="M17.813,8.34v2.77l3.144,2.58V6.814
					c0-0.531-0.108-0.891-0.327-1.078v1.432L17.813,8.34z"/>
				<g display="inline" clip-path="url(#SVGID_10_)">
					<polygon fill="#F5D729" points="18.445,13.385 18.356,13.385 18.356,7.52 18.445,7.52 18.445,13.385 					"/>
				</g>
				<g display="inline" clip-path="url(#SVGID_10_)">
					<polygon fill="#F5D729" points="19.104,13.385 19.015,13.385 19.015,7.52 19.104,7.52 19.104,13.385 					"/>
				</g>
				<g display="inline" clip-path="url(#SVGID_10_)">
					<polygon fill="#F5D729" points="19.76,13.385 19.671,13.385 19.671,7.52 19.76,7.52 19.76,13.385 					"/>
				</g>
				<g display="inline" clip-path="url(#SVGID_10_)">
					<polygon fill="#F5D729" points="20.416,13.385 20.328,13.385 20.328,7.52 20.416,7.52 20.416,13.385 					"/>
				</g>
				<path display="inline" clip-path="url(#SVGID_10_)" fill="#010101" d="M17.203,8.857c2.112,0,3.004-0.681,3.451-1.197V5.762
					c0.231-0.066,0.358-0.238,0.375-0.52c-0.658,0.541-1.69-0.727-2.301,0.588c0.33,0.656,0.986,0.588,1.221,0.211
					c0.47,0.398,0.094,1.9-2.746,1.877V8.857z"/>
				<path display="inline" clip-path="url(#SVGID_10_)" fill="#CA2027" d="M17.978,13.453c-0.164,0.213-0.022,0.402,0.118,0.473
					c-0.049-0.143-0.023-0.273,0.071-0.399L17.978,13.453z"/>
				<g display="inline" clip-path="url(#SVGID_10_)">
					<path fill="#010101" d="M18.109,13.922c-0.095-0.022-0.187-0.102-0.212-0.215c-0.021-0.083,0.005-0.175,0.069-0.259
						l0.022,0.018c-0.061,0.078-0.081,0.158-0.064,0.238c0.025,0.1,0.107,0.176,0.179,0.207c-0.069-0.127-0.044-0.264,0.051-0.395
						C18.086,13.656,18.065,13.783,18.109,13.922L18.109,13.922z"/>
				</g>
				<path display="inline" clip-path="url(#SVGID_10_)" fill="#CA2027" d="M18.8,14.254c0.015,0.094-0.032,0.211-0.141,0.354
					c0.282-0.072,0.399-0.168,0.305-0.33L18.8,14.254z"/>
				<g display="inline" clip-path="url(#SVGID_10_)">
					<path fill="#010101" d="M18.663,14.619c0.091-0.158,0.137-0.273,0.121-0.363l0.03-0.004c0.016,0.098-0.032,0.221-0.145,0.361
						c0.173-0.071,0.273-0.123,0.301-0.191c0.018-0.039,0.011-0.084-0.021-0.137c0.063,0.047,0.068,0.102,0.05,0.148
						C18.966,14.512,18.858,14.57,18.663,14.619L18.663,14.619z"/>
				</g>
				<path display="inline" clip-path="url(#SVGID_10_)" fill="#CA2027" d="M19.737,13.9c0.048,0.112,0.056,0.237,0.025,0.377
					c0.21-0.189,0.28-0.445,0.116-0.494L19.737,13.9z"/>
				<g display="inline" clip-path="url(#SVGID_10_)">
					<path fill="#010101" d="M19.772,14.287c0.005-0.15-0.002-0.275-0.05-0.381l0.029-0.01c0.048,0.111,0.056,0.24,0.023,0.385
						c0.114-0.139,0.199-0.301,0.176-0.402c-0.009-0.043-0.035-0.07-0.076-0.08c0.062-0.016,0.093,0.021,0.105,0.072
						C20.007,13.984,19.92,14.154,19.772,14.287L19.772,14.287z"/>
				</g>
				<path display="inline" clip-path="url(#SVGID_10_)" fill="#CA2027" d="M19.715,13.057c0.078,0.018,0.155,0.092,0.234,0.234
					c0.024-0.258-0.023-0.398-0.258-0.445L19.715,13.057z"/>
				<g display="inline" clip-path="url(#SVGID_10_)">
					<path fill="#010101" d="M19.963,13.293c-0.102-0.129-0.178-0.207-0.252-0.223l0.006-0.027c0.083,0.016,0.166,0.098,0.246,0.24
						c-0.002-0.27-0.068-0.383-0.275-0.424C19.949,12.881,19.986,13.045,19.963,13.293L19.963,13.293z"/>
				</g>
				<path display="inline" clip-path="url(#SVGID_10_)" fill="#CA2027" d="M17.649,12.283l1.104,1.008c0,0-0.423,0.094-0.587,0.094
					c-0.166,0-0.306,0.047-0.259,0.096c0.047,0.046,0.139,0.046,0.188,0.115c0.046,0.07,0.117,0.166,0.21,0.07
					c0.095-0.092,0.423-0.186,0.423-0.186s0,0.539-0.023,0.607c-0.022,0.072-0.094,0.211-0.046,0.211c0.046,0,0.046-0.021,0.235,0
					c0.185,0.025,0.164,0.072,0.116-0.211c-0.047-0.279-0.023-0.584-0.023-0.584s0.422,0.279,0.563,0.469
					c0.14,0.188,0.118,0.047,0.187-0.025c0.072-0.068,0.164-0.092,0.236-0.115c0.07-0.023-0.188-0.096-0.258-0.143
					c-0.071-0.047-0.609-0.352-0.609-0.352s0.304-0.094,0.492-0.119c0.188-0.021,0.188-0.021,0.165-0.115
					c-0.025-0.094,0-0.189,0-0.234s-0.025-0.094-0.143,0c-0.116,0.094-0.656,0.328-0.656,0.328l-0.917-1.219L17.649,12.283z"/>
				<g display="inline" clip-path="url(#SVGID_10_)">
					<path fill="#010101" d="M19.018,14.332c-0.014,0-0.03-0.002-0.054-0.006l-0.071-0.01c-0.134-0.018-0.171-0.01-0.198-0.008
						l-0.061-0.006c-0.016-0.023,0.004-0.076,0.036-0.158l0.021-0.059c0.02-0.055,0.024-0.454,0.024-0.605
						c-0.015,0.023-0.311,0.111-0.398,0.199c-0.029,0.027-0.061,0.045-0.098,0.039c-0.056-0.004-0.096-0.059-0.136-0.113
						c-0.022-0.037-0.064-0.055-0.102-0.07c-0.032-0.012-0.062-0.023-0.084-0.045l-0.007-0.008l-0.004-0.035
						c0.021-0.051,0.159-0.076,0.28-0.076c0.16,0,0.577-0.094,0.583-0.094l-1.109-0.984l0.02-0.021l1.103,1.008
						c-0.023,0.029-0.434,0.121-0.596,0.121c-0.141,0-0.243,0.035-0.253,0.057c0.022,0.029,0.048,0.041,0.078,0.051
						c0.039,0.018,0.086,0.035,0.116,0.08c0.034,0.051,0.072,0.098,0.115,0.102c0.025,0.004,0.049-0.008,0.073-0.033
						c0.096-0.098,0.415-0.188,0.43-0.191c0.017,0.037,0.017,0.557-0.006,0.631l-0.023,0.058c-0.016,0.04-0.046,0.119-0.037,0.131
						c0.059-0.008,0.1-0.016,0.235,0l0.074,0.014c0.025,0.004,0.052,0.01,0.058,0.004c0.007-0.008,0-0.051-0.01-0.105l-0.021-0.105
						c-0.046-0.279-0.025-0.588-0.023-0.59c0.04,0,0.447,0.275,0.591,0.458c0.052,0.074,0.065,0.084,0.089,0.09
						c0.008,0,0.02-0.019,0.028-0.042c0.013-0.021,0.025-0.049,0.046-0.07c0.064-0.063,0.148-0.092,0.215-0.112
						c0.021-0.013-0.052-0.045-0.101-0.064c-0.051-0.021-0.106-0.041-0.132-0.059c-0.072-0.047-0.61-0.352-0.61-0.352
						c0.006-0.027,0.312-0.121,0.498-0.145c0.095-0.012,0.147-0.02,0.16-0.035c0.007-0.008,0-0.031-0.009-0.066
						c-0.017-0.068-0.01-0.137-0.004-0.188c0.002-0.021,0.004-0.037,0.004-0.049c-0.022-0.043-0.047-0.045-0.117,0.012
						c-0.118,0.096-0.638,0.318-0.662,0.33l-0.933-1.225l0.938,1.201c-0.001-0.012,0.522-0.238,0.637-0.33
						c0.061-0.049,0.105-0.066,0.136-0.053c0.013,0.008,0.028,0.021,0.028,0.064c0,0.012-0.002,0.029-0.003,0.053
						c-0.006,0.047-0.013,0.113,0.003,0.18c0.01,0.041,0.018,0.066,0.004,0.088c-0.018,0.025-0.063,0.029-0.181,0.043
						c-0.171,0.023-0.443,0.105-0.484,0.119c0.056,0.004,0.542,0.281,0.608,0.328c0.025,0.014,0.079,0.037,0.129,0.056
						C19.963,13.781,20,13.796,20,13.82l-0.051,0.035c-0.066,0.02-0.142,0.043-0.201,0.102c-0.018,0.02-0.029,0.045-0.038,0.066
						c-0.017,0.027-0.029,0.055-0.054,0.056c-0.029,0.002-0.063-0.027-0.118-0.099c-0.13-0.176-0.512-0.432-0.555-0.463
						c0.015,0.031-0.002,0.314,0.043,0.568l0.018,0.105c0.017,0.082,0.021,0.115,0.004,0.131
						C19.041,14.33,19.029,14.332,19.018,14.332L19.018,14.332z"/>
				</g>
				<path display="inline" clip-path="url(#SVGID_10_)" fill="#010101" d="M16.781,15.332l0.495-0.588
					c0.563,0.346,0.977,0.25,1.242-0.279c-0.845,0.143-1.242-0.627-1.196-2.299l0.634,0.982v-0.912l0.773,0.094l-2.041-2.182
					L16.781,15.332z"/>
				<path display="inline" clip-path="url(#SVGID_10_)" fill="#010101" d="M15.749,8.34v2.77l-3.144,2.58V6.814
					c0-0.531,0.11-0.891,0.328-1.078v1.432L15.749,8.34z"/>
				<g display="inline" clip-path="url(#SVGID_10_)">
					<polygon fill="#F5D729" points="15.207,13.385 15.119,13.385 15.119,7.52 15.207,7.52 15.207,13.385 					"/>
				</g>
				<g display="inline" clip-path="url(#SVGID_10_)">
					<polygon fill="#F5D729" points="14.549,13.385 14.462,13.385 14.462,7.52 14.549,7.52 14.549,13.385 					"/>
				</g>
				<g display="inline" clip-path="url(#SVGID_10_)">
					<polygon fill="#F5D729" points="13.893,13.385 13.805,13.385 13.805,7.52 13.893,7.52 13.893,13.385 					"/>
				</g>
				<g display="inline" clip-path="url(#SVGID_10_)">
					<polygon fill="#F5D729" points="13.236,13.385 13.146,13.385 13.146,7.52 13.236,7.52 13.236,13.385 					"/>
				</g>
				<path display="inline" clip-path="url(#SVGID_10_)" fill="#010101" d="M16.36,8.857c-2.113,0-3.004-0.681-3.45-1.197V5.762
					c-0.235-0.066-0.359-0.238-0.374-0.52c0.656,0.541,1.688-0.727,2.298,0.588c-0.327,0.656-0.985,0.588-1.22,0.211
					c-0.468,0.398-0.094,1.9,2.746,1.877V8.857z"/>
				<path display="inline" clip-path="url(#SVGID_10_)" fill="#CA2027" d="M15.585,13.453c0.164,0.213,0.025,0.402-0.118,0.473
					c0.049-0.143,0.023-0.273-0.068-0.399L15.585,13.453z"/>
				<g display="inline" clip-path="url(#SVGID_10_)">
					<path fill="#010101" d="M15.475,13.938c0.025-0.154,0.004-0.281-0.089-0.402c0.119,0.111,0.144,0.248,0.096,0.395
						c0.05-0.051,0.134-0.127,0.157-0.227c0.018-0.08-0.004-0.161-0.067-0.238l0.024-0.018c0.066,0.084,0.091,0.176,0.071,0.259
						C15.643,13.82,15.552,13.9,15.475,13.938L15.475,13.938z"/>
				</g>
				<path display="inline" clip-path="url(#SVGID_10_)" fill="#CA2027" d="M14.763,14.254c-0.015,0.094,0.032,0.211,0.141,0.354
					c-0.281-0.072-0.396-0.168-0.305-0.33L14.763,14.254z"/>
				<g display="inline" clip-path="url(#SVGID_10_)">
					<path fill="#010101" d="M14.918,14.596c-0.214-0.025-0.321-0.084-0.353-0.162c-0.021-0.047-0.015-0.102,0.021-0.164
						c-0.005,0.068-0.013,0.113,0.004,0.152c0.031,0.068,0.133,0.121,0.317,0.168c-0.126-0.117-0.174-0.24-0.159-0.338l0.031,0.004
						C14.763,14.346,14.809,14.461,14.918,14.596L14.918,14.596z"/>
				</g>
				<path display="inline" clip-path="url(#SVGID_10_)" fill="#CA2027" d="M13.825,13.9c-0.047,0.112-0.054,0.237-0.022,0.377
					c-0.212-0.189-0.282-0.445-0.118-0.494L13.825,13.9z"/>
				<g display="inline" clip-path="url(#SVGID_10_)">
					<path fill="#010101" d="M13.815,14.273c-0.172-0.119-0.258-0.289-0.23-0.402c0.01-0.05,0.044-0.087,0.096-0.101
						c-0.032,0.039-0.059,0.066-0.067,0.109c-0.024,0.102,0.061,0.264,0.199,0.387c-0.057-0.129-0.049-0.258,0-0.369l0.027,0.01
						C13.793,14.012,13.786,14.137,13.815,14.273L13.815,14.273z"/>
				</g>
				<path display="inline" clip-path="url(#SVGID_10_)" fill="#CA2027" d="M13.849,13.057c-0.077,0.018-0.158,0.092-0.234,0.234
					c-0.023-0.258,0.024-0.398,0.259-0.445L13.849,13.057z"/>
				<g display="inline" clip-path="url(#SVGID_10_)">
					<path fill="#010101" d="M13.627,13.299c-0.05-0.254-0.013-0.418,0.242-0.469c-0.201,0.07-0.266,0.184-0.24,0.458
						c0.054-0.15,0.134-0.23,0.216-0.246l0.007,0.027C13.778,13.086,13.703,13.164,13.627,13.299L13.627,13.299z"/>
				</g>
				<path display="inline" clip-path="url(#SVGID_10_)" fill="#CA2027" d="M15.913,12.283l-1.103,1.008c0,0,0.423,0.094,0.588,0.094
					c0.163,0,0.305,0.047,0.258,0.096c-0.046,0.046-0.141,0.046-0.189,0.115c-0.046,0.07-0.115,0.166-0.21,0.07
					c-0.095-0.092-0.423-0.186-0.423-0.186s0,0.539,0.023,0.607c0.023,0.072,0.095,0.211,0.046,0.211c-0.046,0-0.046-0.021-0.232,0
					c-0.189,0.025-0.164,0.072-0.118-0.211c0.046-0.279,0.022-0.584,0.022-0.584s-0.422,0.279-0.561,0.469
					c-0.142,0.188-0.118,0.047-0.189-0.025c-0.069-0.068-0.164-0.092-0.234-0.115c-0.07-0.023,0.188-0.096,0.258-0.143
					c0.07-0.047,0.609-0.352,0.609-0.352s-0.305-0.094-0.491-0.119c-0.188-0.021-0.188-0.021-0.164-0.115
					c0.022-0.094,0-0.189,0-0.234s0.022-0.094,0.14,0c0.118,0.094,0.656,0.328,0.656,0.328l0.917-1.219L15.913,12.283z"/>
				<g display="inline" clip-path="url(#SVGID_10_)">
					<path fill="#010101" d="M14.545,14.332c-0.012,0-0.021-0.002-0.029-0.01c-0.017-0.016-0.011-0.049,0.005-0.131l0.018-0.105
						c0.044-0.262,0.027-0.549,0.023-0.582c-0.015,0.037-0.405,0.301-0.537,0.477c-0.055,0.072-0.089,0.102-0.117,0.099
						c-0.025-0.001-0.038-0.029-0.052-0.056c-0.01-0.021-0.021-0.047-0.041-0.064c-0.059-0.061-0.134-0.084-0.2-0.104l-0.05-0.035
						c-0.002-0.024,0.035-0.04,0.146-0.084c0.052-0.019,0.104-0.042,0.129-0.056c0.065-0.047,0.537-0.313,0.603-0.35
						c-0.049,0-0.312-0.074-0.479-0.098c-0.118-0.014-0.161-0.018-0.181-0.043c-0.013-0.021-0.007-0.047,0.004-0.088
						c0.016-0.067,0.008-0.133,0.003-0.18c-0.002-0.023-0.003-0.041-0.003-0.053c0-0.043,0.016-0.057,0.027-0.064
						c0.031-0.014,0.075,0.004,0.137,0.053c0.114,0.092,0.646,0.324,0.654,0.326l0.897-1.215l-0.893,1.238
						c-0.04-0.008-0.56-0.23-0.678-0.326c-0.068-0.057-0.096-0.055-0.104-0.051c-0.015,0.051-0.011,0.066-0.011,0.088
						c0.006,0.051,0.015,0.119-0.004,0.188c-0.009,0.035-0.013,0.059-0.007,0.066c0.011,0.016,0.064,0.023,0.159,0.035
						c0.186,0.023,0.492,0.117,0.495,0.117c0.004,0.027-0.536,0.332-0.605,0.379c-0.029,0.018-0.084,0.037-0.136,0.059
						c-0.047,0.019-0.122,0.051-0.128,0.063c0.095,0.021,0.179,0.051,0.243,0.113c0.021,0.021,0.035,0.049,0.046,0.07
						c0.009,0.023,0.021,0.042,0.029,0.042c0.016-0.005,0.035-0.016,0.091-0.09c0.141-0.183,0.549-0.458,0.567-0.47
						c0.021,0.014,0.044,0.322-0.002,0.602l-0.019,0.105c-0.011,0.055-0.02,0.098-0.013,0.105c0.004,0.006,0.033,0,0.06-0.004
						l0.073-0.014c0.137-0.016,0.177-0.008,0.204-0.004c0.039-0.008,0.01-0.09-0.007-0.127l-0.022-0.058
						c-0.023-0.074-0.023-0.594-0.023-0.615c0.033-0.012,0.352,0.078,0.447,0.176c0.024,0.025,0.051,0.037,0.072,0.033
						c0.044-0.004,0.083-0.051,0.114-0.102c0.031-0.045,0.077-0.062,0.118-0.08c0.029-0.01,0.056-0.021,0.074-0.04
						c-0.005-0.033-0.106-0.068-0.247-0.068c-0.165,0-0.573-0.092-0.591-0.096l1.097-1.033l0.02,0.021l-1.101,1.008
						c0.038-0.014,0.42,0.07,0.575,0.07c0.118,0,0.258,0.025,0.277,0.076l0.004,0.005l-0.014,0.038
						c-0.022,0.021-0.051,0.033-0.083,0.045c-0.039,0.016-0.078,0.033-0.104,0.07c-0.037,0.055-0.079,0.109-0.136,0.113
						c-0.033,0.006-0.065-0.012-0.098-0.039c-0.091-0.092-0.413-0.186-0.415-0.186c0.018,0.135,0.022,0.537,0.041,0.592l0.021,0.057
						c0.033,0.084,0.051,0.137,0.035,0.16l-0.061,0.006c-0.027-0.002-0.064-0.01-0.196,0.008l-0.073,0.01
						C14.575,14.33,14.56,14.332,14.545,14.332L14.545,14.332z"/>
				</g>
				<path display="inline" clip-path="url(#SVGID_10_)" fill="#010101" d="M16.781,15.332l-0.492-0.588
					c-0.562,0.346-0.976,0.25-1.242-0.279c0.843,0.143,1.242-0.627,1.194-2.299l-0.631,0.982v-0.912l-0.776,0.094l2.041-2.182
					L16.781,15.332z"/>
			</g>
		</g>
	</g>
</g>
<g id="CHINA_3_" display="none">
	<g display="inline">
		<g>
			<defs>
				<rect id="SVGID_11_" width="33.563" height="19.574"/>
			</defs>
			<clipPath id="SVGID_12_">
				<use xlink:href="#SVGID_11_"  overflow="visible"/>
			</clipPath>
			<rect clip-path="url(#SVGID_12_)" fill="#CB2127" width="33.563" height="19.574"/>
			<polygon clip-path="url(#SVGID_12_)" fill="#F7DE28" points="3.228,7.086 3.857,5.133 2.202,3.918 4.254,3.914 4.895,1.965 
				5.532,3.914 7.585,3.922 5.927,5.133 6.554,7.086 4.893,5.879 			"/>
			<polygon clip-path="url(#SVGID_12_)" fill="#F7DE28" points="8.95,8.141 9.645,8.422 10.126,7.848 10.074,8.594 10.768,8.875 
				10.042,9.059 9.988,9.797 9.591,9.168 8.867,9.344 9.345,8.773 			"/>
			<polygon clip-path="url(#SVGID_12_)" fill="#F7DE28" points="12.702,4.387 11.966,4.258 11.613,4.918 11.51,4.18 10.772,4.043 
				11.443,3.719 11.342,2.977 11.862,3.512 12.533,3.188 12.183,3.848 			"/>
			<polygon clip-path="url(#SVGID_12_)" fill="#F7DE28" points="11.141,7.73 11.368,7.02 10.766,6.578 11.514,6.578 11.744,5.867 
				11.977,6.578 12.725,6.578 12.122,7.02 12.349,7.73 11.744,7.293 			"/>
			<polygon clip-path="url(#SVGID_12_)" fill="#F7DE28" points="8.988,1.242 9.665,1.559 10.176,1.012 10.087,1.754 10.762,2.074 
				10.03,2.215 9.938,2.957 9.573,2.305 8.841,2.441 9.349,1.895 			"/>
		</g>
	</g>
</g>
<g id="TURKEY_2_">
	<g>
		<g>
			<defs>
				<rect id="SVGID_13_" width="33.563" height="19.582"/>
			</defs>
			<clipPath id="SVGID_14_">
				<use xlink:href="#SVGID_13_"  overflow="visible"/>
			</clipPath>
			<rect clip-path="url(#SVGID_14_)" fill="#D1202A" width="33.563" height="19.582"/>
			<g clip-path="url(#SVGID_14_)">
				<defs>
					<rect id="SVGID_15_" width="33.563" height="19.582"/>
				</defs>
				<clipPath id="SVGID_16_">
					<use xlink:href="#SVGID_15_"  overflow="visible"/>
				</clipPath>
				<path clip-path="url(#SVGID_16_)" fill="#FFFFFF" d="M9.789,4.895c2.703,0,4.896,2.191,4.896,4.895s-2.193,4.895-4.896,4.895
					c-2.702,0-4.893-2.191-4.893-4.895S7.087,4.895,9.789,4.895"/>
				<path clip-path="url(#SVGID_16_)" fill="#D1202A" d="M11.013,5.871c2.165,0,3.916,1.758,3.916,3.918
					c0,2.164-1.751,3.918-3.916,3.918c-2.162,0-3.916-1.754-3.916-3.918C7.097,7.629,8.851,5.871,11.013,5.871"/>
				<polygon clip-path="url(#SVGID_16_)" fill="#FFFFFF" points="13.927,9.789 16.251,10.547 16.629,9.379 				"/>
				<polygon clip-path="url(#SVGID_16_)" fill="#FFFFFF" points="13.927,9.789 16.251,9.035 16.629,10.199 				"/>
				<polygon clip-path="url(#SVGID_16_)" fill="#FFFFFF" points="15.616,7.461 15.616,9.91 16.84,9.91 				"/>
				<polygon clip-path="url(#SVGID_16_)" fill="#FFFFFF" points="15.616,7.461 17.054,9.441 16.066,10.16 				"/>
				<polygon clip-path="url(#SVGID_16_)" fill="#FFFFFF" points="15.616,12.121 17.054,10.137 16.066,9.418 				"/>
				<polygon clip-path="url(#SVGID_16_)" fill="#FFFFFF" points="15.616,12.121 15.616,9.668 16.84,9.668 				"/>
				<polygon clip-path="url(#SVGID_16_)" fill="#FFFFFF" points="18.352,8.355 16.027,9.105 16.405,10.27 				"/>
				<polygon clip-path="url(#SVGID_16_)" fill="#FFFFFF" points="18.352,8.355 16.914,10.332 15.923,9.613 				"/>
				<polygon clip-path="url(#SVGID_16_)" fill="#FFFFFF" points="18.352,11.23 16.914,9.25 15.923,9.969 				"/>
				<polygon clip-path="url(#SVGID_16_)" fill="#FFFFFF" points="18.352,11.23 16.027,10.473 16.405,9.309 				"/>
			</g>
		</g>
	</g>
</g>
</svg>
